<?xml version="1.0" encoding="UTF-8"?>
<svg version="1.1" xmlns="http://www.w3.org/2000/svg" width="512" height="512">
<path d="M0 0 C11.28953828 10.34111241 20.72966745 21.46270659 28 35 C28 35.66 28 36.32 28 37 C28.66 37 29.32 37 30 37 C30.23589844 36.14921875 30.47179687 35.2984375 30.71484375 34.421875 C32.15508573 30.58706656 34.15672586 27.52132439 36.5625 24.25 C37.00795166 23.63729248 37.45340332 23.02458496 37.91235352 22.39331055 C41.93939104 16.93513573 46.30728259 11.89812255 51 7 C51.80695313 6.11828125 52.61390625 5.2365625 53.4453125 4.328125 C64.92936706 -7.807264 78.83201428 -16.21505999 94 -23 C95.61455078 -23.72316406 95.61455078 -23.72316406 97.26171875 -24.4609375 C128.06165703 -37.21373503 163.96394517 -35.64432722 194.5625 -23.1796875 C231.12327671 -7.71403939 259.28269311 18.78298913 274.99072266 55.49267578 C276.65337764 59.62317086 278.0682626 63.80713036 279.375 68.0625 C279.60147217 68.79162598 279.82794434 69.52075195 280.0612793 70.27197266 C284.24249801 84.83788678 285.55694221 99.53476287 285.4375 114.625 C285.43293793 115.8595845 285.43293793 115.8595845 285.42828369 117.11911011 C285.35256362 131.05311676 284.26645325 144.41246182 281 158 C280.79632813 158.87253418 280.59265625 159.74506836 280.3828125 160.64404297 C272.21733543 194.62276045 254.92472597 224.17778235 233 251 C232.56220215 251.53689453 232.1244043 252.07378906 231.67333984 252.62695312 C221.34495578 265.22459682 210.1134885 276.96175214 198.625 288.5 C197.88822021 289.24145264 197.15144043 289.98290527 196.39233398 290.74682617 C191.75662374 295.36894962 186.96869963 299.7400061 182 304 C180.91709569 304.94952606 179.8350186 305.89999665 178.75390625 306.8515625 C170.47554653 314.07163113 161.89577803 320.81257206 153.11279297 327.40625 C151.08670021 328.93459915 149.07486551 330.47983264 147.06640625 332.03125 C114.58193431 356.99252792 77.97973334 376.84324055 40 392 C39.24122559 392.31791504 38.48245117 392.63583008 37.70068359 392.96337891 C31.30696543 395.55747085 26.74985242 395.61647073 20.38671875 393.015625 C19.31607178 392.58113037 18.2454248 392.14663574 17.14233398 391.69897461 C16.00223877 391.22081299 14.86214355 390.74265137 13.6875 390.25 C11.90291382 389.51052124 11.90291382 389.51052124 10.08227539 388.75610352 C-32.37286761 371.02178378 -71.37084733 347.0487268 -107 318 C-107.86753906 317.30648438 -108.73507813 316.61296875 -109.62890625 315.8984375 C-115.62843334 311.06809279 -121.34765784 306.02022361 -126.98046875 300.7734375 C-129.16603655 298.74191207 -131.40614229 296.78917717 -133.671875 294.84765625 C-138.52857447 290.6145259 -143.07511815 286.07532526 -147.6184082 281.51196289 C-149.06025221 280.06475615 -150.50737116 278.62297974 -151.95507812 277.18164062 C-157.18287071 271.95787683 -162.21351173 266.63111658 -167 261 C-167.86882812 260.01257813 -168.73765625 259.02515625 -169.6328125 258.0078125 C-204.47748599 217.70159144 -227.51363322 169.50065175 -227.375 115.5 C-227.37412384 114.66373077 -227.37324768 113.82746155 -227.37234497 112.96585083 C-227.32634969 99.62865107 -226.56505179 86.92073683 -223 74 C-222.76925781 73.14277344 -222.53851563 72.28554687 -222.30078125 71.40234375 C-217.82100728 55.30834098 -209.05792444 27.67208018 -193.6796875 18.63671875 C-191 18 -191 18 -187.62109375 18.7109375 C-183.77913657 19.01763095 -183.34646794 18.95824923 -180.47265625 16.7890625 C-179.31053986 15.76242686 -178.17411723 14.70611164 -177.0625 13.625 C-176.47984375 13.07642334 -175.8971875 12.52784668 -175.296875 11.96264648 C-172.83556812 9.48728941 -171.20025483 7.79746449 -170.33984375 4.37109375 C-170.4264078 2.08713224 -170.4264078 2.08713224 -171.03125 0.03515625 C-171 -2 -171 -2 -168.9296875 -4.48046875 C-121.0489526 -45.65790077 -45.8747133 -40.89888461 0 0 Z " fill="#E4273E" transform="translate(227,75)"/>
<path d="M0 0 C11.28953828 10.34111241 20.72966745 21.46270659 28 35 C28 35.66 28 36.32 28 37 C28.66 37 29.32 37 30 37 C30.23589844 36.14921875 30.47179687 35.2984375 30.71484375 34.421875 C32.15508573 30.58706656 34.15672586 27.52132439 36.5625 24.25 C37.00795166 23.63729248 37.45340332 23.02458496 37.91235352 22.39331055 C41.93939104 16.93513573 46.30728259 11.89812255 51 7 C51.80695313 6.11828125 52.61390625 5.2365625 53.4453125 4.328125 C64.92936706 -7.807264 78.83201428 -16.21505999 94 -23 C95.61455078 -23.72316406 95.61455078 -23.72316406 97.26171875 -24.4609375 C128.06165703 -37.21373503 163.96394517 -35.64432722 194.5625 -23.1796875 C231.12327671 -7.71403939 259.28269311 18.78298913 274.99072266 55.49267578 C276.65337764 59.62317086 278.0682626 63.80713036 279.375 68.0625 C279.60147217 68.79162598 279.82794434 69.52075195 280.0612793 70.27197266 C284.24249801 84.83788678 285.55694221 99.53476287 285.4375 114.625 C285.43293793 115.8595845 285.43293793 115.8595845 285.42828369 117.11911011 C285.35256362 131.05311676 284.26645325 144.41246182 281 158 C280.79632813 158.87253418 280.59265625 159.74506836 280.3828125 160.64404297 C272.21733543 194.62276045 254.92472597 224.17778235 233 251 C232.56220215 251.53689453 232.1244043 252.07378906 231.67333984 252.62695312 C221.34495578 265.22459682 210.1134885 276.96175214 198.625 288.5 C197.88822021 289.24145264 197.15144043 289.98290527 196.39233398 290.74682617 C191.75662374 295.36894962 186.96869963 299.7400061 182 304 C180.91709569 304.94952606 179.8350186 305.89999665 178.75390625 306.8515625 C170.47554653 314.07163113 161.89577803 320.81257206 153.11279297 327.40625 C151.08670021 328.93459915 149.07486551 330.47983264 147.06640625 332.03125 C114.58193431 356.99252792 77.97973334 376.84324055 40 392 C39.24122559 392.31791504 38.48245117 392.63583008 37.70068359 392.96337891 C31.30696543 395.55747085 26.74985242 395.61647073 20.38671875 393.015625 C19.31607178 392.58113037 18.2454248 392.14663574 17.14233398 391.69897461 C16.00223877 391.22081299 14.86214355 390.74265137 13.6875 390.25 C11.90291382 389.51052124 11.90291382 389.51052124 10.08227539 388.75610352 C-32.37286761 371.02178378 -71.37084733 347.0487268 -107 318 C-107.86753906 317.30648438 -108.73507813 316.61296875 -109.62890625 315.8984375 C-115.62843334 311.06809279 -121.34765784 306.02022361 -126.98046875 300.7734375 C-129.16603655 298.74191207 -131.40614229 296.78917717 -133.671875 294.84765625 C-138.52857447 290.6145259 -143.07511815 286.07532526 -147.6184082 281.51196289 C-149.06025221 280.06475615 -150.50737116 278.62297974 -151.95507812 277.18164062 C-157.18287071 271.95787683 -162.21351173 266.63111658 -167 261 C-167.86882812 260.01257813 -168.73765625 259.02515625 -169.6328125 258.0078125 C-204.47748599 217.70159144 -227.51363322 169.50065175 -227.375 115.5 C-227.37412384 114.66373077 -227.37324768 113.82746155 -227.37234497 112.96585083 C-227.32634969 99.62865107 -226.56505179 86.92073683 -223 74 C-222.76925781 73.14277344 -222.53851563 72.28554687 -222.30078125 71.40234375 C-217.35737726 53.64270721 -209.23815431 33.31308726 -196 20 C-191.94322507 17.93765171 -189.39199022 17.59830099 -185 19 C-182.20028347 21.57868628 -181.13989334 23.17812661 -180.5 26.9375 C-181.12991961 30.79575761 -182.76529557 32.80030957 -185 36 C-194.76862746 50.17552707 -202.17964124 65.11290692 -206 82 C-206.14808105 82.63212402 -206.29616211 83.26424805 -206.44873047 83.91552734 C-216.00763916 126.11260435 -204.48929916 173.60633195 -182 210 C-170.17695942 228.18697313 -156.37570258 246.13194222 -140.765625 261.234375 C-139.04157749 262.95842251 -137.49617176 264.75144505 -135.9375 266.625 C-130.73428591 272.67358754 -124.70651128 277.9392944 -118.83203125 283.32080078 C-117.20582972 284.81134104 -115.58606846 286.30843279 -113.96875 287.80859375 C-107.8377327 293.45511974 -101.52635303 298.81753279 -95 304 C-94.36739258 304.50515137 -93.73478516 305.01030273 -93.08300781 305.53076172 C-64.81879486 328.04237604 -34.54466978 347.28906479 -2 363 C-1.3699707 363.30534668 -0.73994141 363.61069336 -0.09082031 363.92529297 C3.62197012 365.71665218 7.35409824 367.45595577 11.11474609 369.14453125 C12.40410564 369.72960194 13.68812165 370.32655463 14.96728516 370.93359375 C16.92465685 371.85968274 18.89635913 372.74543719 20.875 373.625 C22.02742187 374.15351563 23.17984375 374.68203125 24.3671875 375.2265625 C29.36421729 376.29044626 32.39767735 374.94891329 37 373 C37.74733398 372.70593262 38.49466797 372.41186523 39.26464844 372.10888672 C81.24587617 355.38967065 120.53977206 331.19044795 155 302 C156.06605475 301.10765282 157.13248115 300.21574952 158.19921875 299.32421875 C164.92613868 293.68655938 171.54188958 287.9454192 178 282 C178.61842773 281.43200684 179.23685547 280.86401367 179.87402344 280.27880859 C181.98358271 278.33711212 184.08634236 276.38828279 186.1875 274.4375 C186.85305908 273.82422852 187.51861816 273.21095703 188.2043457 272.57910156 C192.19804325 268.85105467 195.88024435 264.9797629 199.41381836 260.81201172 C200.99168486 259.00949899 202.64675152 257.34516996 204.375 255.6875 C208.50810336 251.6093825 212.09538407 247.1320952 215.71386719 242.59814453 C217.06768092 240.9158999 218.44231188 239.25231975 219.8203125 237.58984375 C236.64854505 217.150605 249.66482783 195.17286777 258 170 C258.24621094 169.26023926 258.49242187 168.52047852 258.74609375 167.75830078 C261.21268264 160.27687002 263.65845027 152.77577855 265 145 C265.27650391 143.55173828 265.27650391 143.55173828 265.55859375 142.07421875 C271.44359989 106.23656068 265.08138531 69.09102067 244.96484375 38.7109375 C225.34621278 11.64268722 195.50171088 -7.59667831 162.40234375 -13.53125 C132.06675892 -17.35123302 101.78578028 -10.90064823 77.25 7.75 C58.54737479 22.56897229 45.53536549 41.33253597 37.10546875 63.609375 C35.98267917 66.03745706 35.13824039 67.40669952 33 69 C26.03397341 69.77400295 26.03397341 69.77400295 22.94921875 67.46484375 C20.43790512 64.28921469 19.1492257 60.87606233 17.75 57.125 C6.15782409 27.72583145 -15.05318916 7.80050614 -43 -6 C-43.82628906 -6.41121094 -44.65257812 -6.82242188 -45.50390625 -7.24609375 C-70.23775193 -18.30104739 -101.21625539 -16.45194519 -126.28125 -7.5078125 C-136.86014906 -3.34940484 -146.66606449 2.12924249 -156.03515625 8.53125 C-159.62558129 10.30990588 -162.03897746 10.37368137 -166 10 C-168.9375 8.5 -168.9375 8.5 -171 6 C-171.84577114 0.67164179 -171.84577114 0.67164179 -171 -2 C-154.49345787 -21.1271063 -120.9787074 -31.00092488 -96.74609375 -32.87109375 C-60.55221179 -34.57009532 -27.32053261 -24.35719441 0 0 Z " fill="#171616" transform="translate(227,75)"/>
<path d="M0 0 C5.86442249 4.22129482 9.7003525 9.36038667 13.73608398 15.23510742 C18.95674037 22.82869661 24.84964488 28.11779322 32.3984375 33.31640625 C42.48011231 40.29990739 50.03469744 49.98940168 52.3359375 62.37890625 C53.43699123 76.38575366 50.50214617 87.61541766 41.3359375 98.37890625 C32.73027787 107.63527738 23.11086154 112.04284844 10.49310303 112.52607727 C9.08887012 112.54095677 7.68457524 112.55062675 6.28027344 112.5559082 C5.50688126 112.5624794 4.73348907 112.5690506 3.93666077 112.57582092 C1.39787675 112.59539979 -1.14084859 112.60718122 -3.6796875 112.6171875 C-4.98992008 112.62330079 -4.98992008 112.62330079 -6.32662201 112.62953758 C-10.94935361 112.65033169 -15.5720561 112.6646626 -20.19482422 112.67407227 C-24.94344014 112.685129 -29.69158655 112.71953964 -34.44003677 112.75924397 C-38.11544609 112.78550952 -41.79074504 112.79377282 -45.46623993 112.79735374 C-47.21556523 112.80219319 -48.96488649 112.81373081 -50.71411896 112.83239174 C-66.52656344 112.99061332 -78.28236679 110.1082595 -90.3515625 99.25390625 C-99.00663289 90.19627445 -102.18302226 78.12253235 -101.9765625 65.94140625 C-101.50631719 60.58060974 -99.98832364 56.20229457 -97.6640625 51.37890625 C-97.26316406 50.52554688 -96.86226562 49.6721875 -96.44921875 48.79296875 C-92.14270315 40.6792437 -85.48648281 35.9530795 -78.234375 30.578125 C-70.74139719 24.9389462 -65.12140539 18.56050464 -59.8515625 10.81640625 C-55.64671872 4.94114507 -50.82698873 1.08888309 -44.6640625 -2.62109375 C-43.91898438 -3.07613281 -43.17390625 -3.53117187 -42.40625 -4 C-29.18323121 -10.6115094 -12.04047594 -7.32668257 0 0 Z " fill="#6A2D2D" transform="translate(280.6640625,271.62109375)"/>
<path d="M0 0 C5.86442249 4.22129482 9.7003525 9.36038667 13.73608398 15.23510742 C18.95674037 22.82869661 24.84964488 28.11779322 32.3984375 33.31640625 C42.48011231 40.29990739 50.03469744 49.98940168 52.3359375 62.37890625 C53.43699123 76.38575366 50.50214617 87.61541766 41.3359375 98.37890625 C32.73027787 107.63527738 23.11086154 112.04284844 10.49310303 112.52607727 C9.08887012 112.54095677 7.68457524 112.55062675 6.28027344 112.5559082 C5.50688126 112.5624794 4.73348907 112.5690506 3.93666077 112.57582092 C1.39787675 112.59539979 -1.14084859 112.60718122 -3.6796875 112.6171875 C-4.98992008 112.62330079 -4.98992008 112.62330079 -6.32662201 112.62953758 C-10.94935361 112.65033169 -15.5720561 112.6646626 -20.19482422 112.67407227 C-24.94344014 112.685129 -29.69158655 112.71953964 -34.44003677 112.75924397 C-38.11544609 112.78550952 -41.79074504 112.79377282 -45.46623993 112.79735374 C-47.21556523 112.80219319 -48.96488649 112.81373081 -50.71411896 112.83239174 C-66.52656344 112.99061332 -78.28236679 110.1082595 -90.3515625 99.25390625 C-99.00663289 90.19627445 -102.18302226 78.12253235 -101.9765625 65.94140625 C-101.50631719 60.58060974 -99.98832364 56.20229457 -97.6640625 51.37890625 C-97.26316406 50.52554688 -96.86226562 49.6721875 -96.44921875 48.79296875 C-92.14270315 40.6792437 -85.48648281 35.9530795 -78.234375 30.578125 C-70.74139719 24.9389462 -65.12140539 18.56050464 -59.8515625 10.81640625 C-55.64671872 4.94114507 -50.82698873 1.08888309 -44.6640625 -2.62109375 C-43.91898438 -3.07613281 -43.17390625 -3.53117187 -42.40625 -4 C-29.18323121 -10.6115094 -12.04047594 -7.32668257 0 0 Z M-46.6640625 21.37890625 C-47.97243952 23.15840668 -49.26315006 24.95098649 -50.5390625 26.75390625 C-56.64654621 35.32313963 -63.67341242 41.55128572 -72.21875 47.62109375 C-78.79549571 52.34878635 -83.62305164 58.57064941 -85.08203125 66.7109375 C-85.35654828 74.17518623 -83.24640049 80.78999435 -78.6015625 86.62890625 C-71.37994417 93.93660608 -64.10687463 95.9027049 -54.00743103 96.06294823 C-51.51763732 96.07396044 -49.02881221 96.05992035 -46.5390625 96.04296875 C-44.783688 96.04634388 -43.02831579 96.05120227 -41.27294922 96.0574646 C-37.60817033 96.06480317 -33.94400408 96.05422869 -30.27929688 96.03076172 C-25.60549137 96.00227531 -20.93312185 96.01869563 -16.2593689 96.04862404 C-12.63880796 96.06677925 -9.01858183 96.06090158 -5.39801025 96.04798508 C-3.67579982 96.04467371 -1.95355798 96.04865733 -0.23138428 96.06038284 C10.26649559 96.11619017 19.26769006 95.84917688 27.45825195 88.46572876 C32.92770232 82.93108269 35.30751375 76.63742391 35.8359375 68.94140625 C35.51823328 61.02642711 31.07318187 54.34747275 25.4140625 49.08203125 C23.00376419 47.10667399 20.50249064 45.3071311 17.9609375 43.50390625 C10.48273997 38.17402812 4.55621921 32.2669674 -0.7265625 24.75390625 C-5.58944106 17.86080006 -10.3327605 12.59577498 -18.6640625 10.37890625 C-31.07123295 9.05506424 -38.71537224 11.90700882 -46.6640625 21.37890625 Z " fill="#181616" transform="translate(280.6640625,271.62109375)"/>
<path d="M0 0 C0.61488281 0.32742187 1.22976563 0.65484375 1.86328125 0.9921875 C10.11275341 6.00406194 14.65521254 15.81928483 17.34375 24.765625 C20.14189425 38.55647879 17.58071748 53.13617714 10 65 C4.51072607 72.45921498 -2.35937171 79.78929608 -11.92285156 81.3046875 C-19.78685475 82.05257178 -27.47977435 81.90934637 -34 77 C-34.59941406 76.5875 -35.19882812 76.175 -35.81640625 75.75 C-43.51337208 69.89831108 -48.57648555 60.49401786 -50 51 C-51.22099326 36.20579713 -50.28282862 22.48334669 -40.98046875 10.28515625 C-29.88714422 -2.5148336 -15.85389737 -9.26088395 0 0 Z " fill="#181616" transform="translate(315,166)"/>
<path d="M0 0 C10.3908564 7.86909885 17.46962077 16.96681384 20 30 C21.60798908 44.39318899 20.33937075 57.99284683 11.703125 70.03125 C6.71195725 75.80085676 -0.1575516 80.5621029 -7.8046875 81.43359375 C-9.16124761 81.45754082 -10.51838632 81.45819084 -11.875 81.4375 C-12.94161865 81.4228772 -12.94161865 81.4228772 -14.02978516 81.40795898 C-24.66334415 81.04780974 -30.81475883 75.50733819 -38 68 C-47.05487546 56.31489881 -49.19078778 42.44018599 -48 28 C-45.86429614 17.38542395 -40.78770331 7.37885098 -31.9375 0.9375 C-21.72235896 -5.47380474 -10.59962883 -6.23311507 0 0 Z " fill="#181616" transform="translate(227,166)"/>
<path d="M0 0 C8.99405716 4.25010355 16.04687394 11.8758281 20.6875 20.5625 C21.1 21.32433594 21.5125 22.08617187 21.9375 22.87109375 C26.37095466 32.73860915 26.7837345 47.00715352 23.1875 57.25 C19.51061352 64.53926617 14.01272088 71.05891981 6.23828125 73.97265625 C-2.49424943 75.99197039 -10.68095285 75.30757637 -18.3125 70.5625 C-29.18614912 63.61442251 -36.41148067 53.16781408 -39.3125 40.5625 C-39.69970549 37.14195186 -39.83464874 33.75347734 -39.875 30.3125 C-39.88974365 29.48508301 -39.9044873 28.65766602 -39.91967773 27.80517578 C-39.77666488 19.22611717 -36.30393173 10.79121616 -30.3125 4.5625 C-21.68946298 -2.99101304 -10.68122872 -3.61647902 0 0 Z " fill="#181616" transform="translate(159.3125,232.4375)"/>
<path d="M0 0 C0.52851563 0.37125 1.05703125 0.7425 1.6015625 1.125 C2.4884375 1.7025 3.3753125 2.28 4.2890625 2.875 C10.90500376 9.31213204 13.81042982 16.97039791 14.03295898 26.10400391 C14.06814722 40.99848118 10.37723759 52.91153613 -0.12109375 63.93359375 C-7.53605702 70.7067151 -15.50421272 73.54965805 -25.45703125 73.390625 C-32.62081235 72.74369656 -37.80566029 70.1881592 -42.7734375 65 C-51.16021162 54.45711189 -51.88698306 43.21022906 -50.3984375 30.125 C-47.67164499 18.18020097 -40.39185668 8.15133844 -30.3984375 1.125 C-21.43321242 -4.16338757 -9.14242163 -5.60216474 0 0 Z " fill="#181616" transform="translate(378.3984375,233.875)"/>
<path d="M0 0 C6.30425415 3.40429724 10.13961326 7.82031143 12.45703125 14.64453125 C14.55162993 23.73117155 13.02101283 32.67662066 9 41 C6.03147817 45.33913864 2.97781111 49.03532313 -2 51 C-6.35224477 51.66957612 -9.90069306 51.58629704 -13.8125 49.5 C-21.18625499 41.07285144 -21.6662464 31.81460681 -21 21 C-19.30081382 12.34164689 -14.93908303 6.27973709 -8 1 C-5.13391871 -0.43304064 -3.18699217 -0.30644155 0 0 Z " fill="#692D2D" transform="translate(303,179)"/>
<path d="M0 0 C6.52344773 2.6298716 10.65362944 7.65659411 13.546875 13.91015625 C16.5834171 22.65951485 16.56547958 33.45530056 13.15625 42.06640625 C11.46149558 45.4559151 9.5143812 47.94526879 6.48828125 50.21484375 C1.46245553 51.75051272 -2.3534256 51.62029712 -6.94921875 49.27734375 C-14.58369491 42.83045277 -17.90061444 35.79117825 -19.1484375 25.80859375 C-19.44709894 17.8168256 -18.01742409 11.06200339 -13.03125 4.69140625 C-8.99268202 0.6125332 -5.75124966 -1.20190192 0 0 Z " fill="#692D2D" transform="translate(214.76171875,179.09765625)"/>
<path d="M0 0 C3.28175318 2.52968474 4.69243777 4.07731331 6 8 C7.00564213 18.27282534 6.29236167 26.40748932 0 35 C-3.8976725 38.76775008 -7.84128499 41.79634764 -13.3125 42.3125 C-17.63730212 41.94599135 -19.04850506 41.1201518 -22 38 C-25.26875235 31.4739646 -25.07901521 23.35482784 -23.34765625 16.3671875 C-20.89984239 10.33695077 -16.66344049 4.25555893 -11.05859375 0.8046875 C-7.40068215 -0.6251603 -3.84779516 -0.68588149 0 0 Z " fill="#692D2D" transform="translate(369,248)"/>
<path d="M0 0 C6.10087336 0.15643265 9.18877885 2.77660692 13.375 7.0625 C19.16797966 14.63649283 20.20247816 21.34205877 20.28125 30.82421875 C19.65985205 34.97753301 18.37267603 37.12991354 15.75 40.375 C11.90543246 42.93804503 10.3279655 42.96570523 5.75 42.375 C-0.90358621 39.27606944 -5.09935529 34.94200645 -8.25 28.375 C-8.61480469 27.6221875 -8.97960937 26.869375 -9.35546875 26.09375 C-10.4956142 22.62850445 -10.5882965 19.58215719 -10.625 15.9375 C-10.65335938 14.66003906 -10.68171875 13.38257813 -10.7109375 12.06640625 C-9.93197193 5.82808025 -6.65343505 0.11315366 0 0 Z " fill="#692D2D" transform="translate(147.25,247.625)"/>
</svg>
