<?xml version="1.0" encoding="UTF-8"?>
<svg version="1.1" xmlns="http://www.w3.org/2000/svg" width="512" height="512">
<path d="M0 0 C0.70476471 0.00248749 1.40952942 0.00497498 2.13565063 0.00753784 C12.76263853 0.06548708 22.95884914 0.41042954 33.25 3.3125 C34.04841309 3.53292969 34.84682617 3.75335938 35.66943359 3.98046875 C71.33673762 14.13849544 100.45251246 36.27807712 119.25 68.3125 C130.84085417 89.24558264 136.57025703 111.07976612 136.5246582 135.00024414 C136.52901835 136.42109949 136.53420577 137.8419525 136.54014587 139.26280212 C136.55340315 143.08092514 136.55412985 146.89894839 136.55158257 150.71708989 C136.55050437 153.92020712 136.55541743 157.12330486 136.560188 160.32641786 C136.57123595 167.88828139 136.57174643 175.45009522 136.56567383 183.01196289 C136.55962943 190.78224724 136.57196768 198.55235072 136.5932439 206.32260424 C136.61091637 213.02619478 136.61685263 219.72972802 136.61360615 226.43334097 C136.6118031 230.42310518 136.61433144 234.41274014 136.62832069 238.40248299 C136.640988 242.15455377 136.63887191 245.90634405 136.62590981 249.65841103 C136.62245575 251.67178723 136.63365416 253.68517239 136.64547729 255.69851685 C136.58249483 266.7085125 134.67903552 276.64367631 129.5625 286.4375 C129.21364746 287.11562744 128.86479492 287.79375488 128.50537109 288.49243164 C118.58537174 307.19877977 102.70888116 318.32477675 82.87207031 324.54052734 C72.47930842 327.60029579 61.88449212 330.23779686 51.25 332.3125 C53.8849455 335.48393307 56.92638018 336.6339952 60.6953125 338.18359375 C61.35705475 338.45792236 62.018797 338.73225098 62.70059204 339.01489258 C64.92252515 339.93372823 67.14874439 340.84169312 69.375 341.75 C70.95371531 342.40113245 72.53215923 343.05292325 74.11035156 343.70532227 C82.63164388 347.22078009 91.17184626 350.68947058 99.71615601 354.14854431 C102.9844086 355.47192705 106.2517805 356.79746592 109.51904297 358.12329102 C113.75697771 359.84298032 117.99857971 361.55314963 122.24267578 363.25756836 C144.19856044 372.11972722 163.05837258 381.75665762 180.25 398.3125 C181.21679688 399.18455078 181.21679688 399.18455078 182.203125 400.07421875 C201.93619562 418.37802491 212.52128993 446.21152954 216.25 472.3125 C216.25 480.2325 216.25 488.1525 216.25 496.3125 C73.69 496.3125 -68.87 496.3125 -215.75 496.3125 C-215.75 456.35918839 -206.34381587 425.1165284 -178.4375 396.5625 C-172.13765841 390.31338026 -165.25479419 385.04659992 -157.75 380.3125 C-156.93635986 379.79292725 -156.12271973 379.27335449 -155.28442383 378.73803711 C-146.45192048 373.32825257 -137.13851457 369.50468842 -127.5625 365.625 C-125.79556579 364.9010392 -124.02897225 364.17624647 -122.26269531 363.45068359 C-116.43029714 361.0585413 -110.59062277 358.68447696 -104.75 356.3125 C-102.54409224 355.41621734 -100.33820071 354.51989476 -98.13232422 353.62353516 C-97.01383591 353.16909531 -95.8953476 352.71465546 -94.7429657 352.2464447 C-91.3656347 350.87376371 -87.98881591 349.49982874 -84.61206055 348.12573242 C-80.25528848 346.35287367 -75.89581053 344.58691207 -71.53442383 342.82543945 C-69.5281006 342.01137081 -67.52183162 341.19716846 -65.515625 340.3828125 C-64.59970078 340.01477005 -63.68377655 339.6467276 -62.74009705 339.26753235 C-58.54657838 337.5603705 -54.49395902 335.90424837 -50.75 333.3125 C-50.75 332.9825 -50.75 332.6525 -50.75 332.3125 C-51.81359741 332.0791394 -51.81359741 332.0791394 -52.89868164 331.84106445 C-80.92899516 325.64871712 -108.11840949 319.45480038 -124.94921875 293.984375 C-131.26496017 283.62506252 -135.84743695 272.52492068 -135.89717102 260.26512146 C-135.90432632 259.05027069 -135.91148163 257.83541992 -135.91885376 256.58375549 C-135.92169381 255.245209 -135.92440557 253.90666222 -135.92700195 252.56811523 C-135.93327229 251.15156896 -135.93991959 249.73502432 -135.94691467 248.31848145 C-135.96791447 243.66936376 -135.97832293 239.02024595 -135.98828125 234.37109375 C-135.9923323 232.76277208 -135.99644932 231.15445057 -136.00063133 229.54612923 C-136.01968516 221.9770319 -136.03390787 214.40794424 -136.0422433 206.83882755 C-136.05197425 198.14881399 -136.07818357 189.45905796 -136.11874419 180.76913494 C-136.14911959 174.02567555 -136.16373281 167.28228898 -136.16702431 160.53876263 C-136.1693533 156.52508379 -136.1780256 152.51167988 -136.20348549 148.49807549 C-136.32476678 128.34468006 -136.0946683 108.68259589 -128.5625 89.625 C-128.26770752 88.85647705 -127.97291504 88.0879541 -127.66918945 87.29614258 C-113.73824049 52.09172168 -87.88442509 25.65140236 -53.35546875 10.203125 C-48.49800927 8.13862588 -43.54635903 6.47566674 -38.5 4.9375 C-37.72132568 4.6988623 -36.94265137 4.46022461 -36.14038086 4.21435547 C-24.21612109 0.7783202 -12.36460908 -0.06996595 0 0 Z " fill="#010101" transform="translate(255.75,7.6875)"/>
<path d="M0 0 C1.90845703 0.51046875 1.90845703 0.51046875 3.85546875 1.03125 C24.93402396 6.94158219 42.45388875 17.66772797 58 33 C58.86496094 33.85207031 59.72992188 34.70414063 60.62109375 35.58203125 C74.82945235 50.36670393 84.09080296 69.23899825 89 89 C89.26863955 90.07206381 89.53727911 91.14412762 89.81405926 92.24867821 C91.76143123 100.60137598 92.42630103 108.41587777 92.37231445 116.97509766 C92.37596512 118.29410568 92.37961578 119.61311371 92.38337708 120.97209167 C92.39266846 124.54436904 92.38346232 128.11636674 92.37004495 131.688622 C92.35860325 135.45325208 92.36284754 139.21787092 92.36479187 142.98251343 C92.36567066 149.29828376 92.35468023 155.61394591 92.33618164 161.9296875 C92.31500206 169.20179797 92.31151059 176.47375041 92.3177436 183.74588549 C92.32346338 190.78317042 92.31776211 197.82040045 92.30657005 204.85767746 C92.30196042 207.83423262 92.30103424 210.81075382 92.3031559 213.78731155 C92.30541161 217.95285372 92.29084185 222.11818006 92.2746582 226.28369141 C92.27713562 227.49960464 92.27961304 228.71551788 92.28216553 229.96827698 C92.1749022 247.36407095 88.55474357 261.17533043 76.171875 273.890625 C75.45515625 274.58671875 74.7384375 275.2828125 74 276 C73.44828125 276.57234375 72.8965625 277.1446875 72.328125 277.734375 C63.50915851 286.20407549 50.42254264 289.35219669 38.9375 292.3125 C37.66583984 292.65861328 36.39417969 293.00472656 35.08398438 293.36132812 C27.37561981 295.39026144 19.96702665 296.66190388 12 297 C11.26917697 293.65039446 10.96727474 292.19399566 12 289 C15.17439349 285.96455303 18.75554241 283.60054445 22.37939453 281.14550781 C49.27518387 262.13450396 67.46265491 226.81333001 73 195 C77.27431985 170.03868643 76.48471108 145.70192817 61.75244141 124.17724609 C50.28895567 108.60885593 33.21389751 97.27381332 14 94 C7.86086196 94.27445558 2.94155181 96.56178649 -2.5625 99.0625 C-44.29113189 117.45264043 -86.40149187 125.77776172 -132 125 C-131.93185688 132.1454935 -131.84164462 139.29048777 -131.73754883 146.43554688 C-131.70471808 148.8557335 -131.67656293 151.27598903 -131.65356445 153.69628906 C-131.20493767 199.70439745 -120.08281691 240.48024022 -87 274 C-83.55514612 277.32725846 -80.06882534 280.30115266 -76.0546875 282.92578125 C-68.2949358 288.03610366 -68.2949358 288.03610366 -67.30078125 291.28515625 C-67.3125 293.5 -67.3125 293.5 -68 297 C-90.39448078 296.9140327 -116.24876351 289.11657623 -132.6875 273.8125 C-145.84572766 260.14191658 -148.12946378 244.99001808 -148.19287109 226.86474609 C-148.20104858 225.56267715 -148.20922607 224.26060822 -148.21765137 222.91908264 C-148.24370449 218.62055485 -148.25917264 214.32201822 -148.2734375 210.0234375 C-148.278806 208.5318565 -148.28418351 207.04027554 -148.28956985 205.54869461 C-148.31118333 199.33082862 -148.32990874 193.11296501 -148.34119225 186.89507103 C-148.35735843 178.05074187 -148.3903737 169.20685696 -148.44759309 160.3626951 C-148.48663838 154.10916358 -148.50586584 147.85574905 -148.51111281 141.60209906 C-148.51472245 137.88565624 -148.52626149 134.16968879 -148.55921555 130.45338058 C-148.88366795 91.98731145 -139.73170336 60.39631492 -113 32 C-112.19175781 31.09507813 -112.19175781 31.09507813 -111.3671875 30.171875 C-98.42242519 16.25137684 -79.05005009 6.21744275 -61 1 C-60.33403809 0.80535156 -59.66807617 0.61070313 -58.98193359 0.41015625 C-40.18150536 -4.87382174 -18.82395112 -5.38447506 0 0 Z " fill="#646C77" transform="translate(284,27)"/>
<path d="M0 0 C16.28410635 7.21473548 27.68220662 19.4417273 34.125 35.9375 C43.31526566 60.98249548 34.99442318 90.9052955 24.24853516 114.16796875 C17.96481785 127.33086784 9.21820074 138.41892616 -0.75 149 C-1.34941406 149.66386719 -1.94882812 150.32773437 -2.56640625 151.01171875 C-14.07109319 163.26184977 -32.18007862 176.2811199 -48.75 180 C-55.78010389 179.88234136 -60.892552 177.31298414 -67 174 C-67.92659424 173.5045166 -68.85318848 173.0090332 -69.80786133 172.49853516 C-81.0154082 166.38425781 -90.46586164 158.74638588 -99.75 150 C-100.41386719 149.40058594 -101.07773438 148.80117188 -101.76171875 148.18359375 C-123.59949483 127.67468843 -137.3230119 95.68051051 -138.75 66 C-139.09183635 53.67059222 -138.941639 41.3307409 -138.75 29 C-137.74026123 28.90501221 -136.73052246 28.81002441 -135.69018555 28.7121582 C-108.991258 26.17331291 -82.31058755 23.58471637 -56.75 15 C-55.29062012 14.52022705 -55.29062012 14.52022705 -53.80175781 14.03076172 C-41.75688732 10.05766527 -29.82689383 6.02860011 -18.44360352 0.38745117 C-11.83146805 -2.78738148 -6.71192702 -2.8182677 0 0 Z " fill="#EECFB3" transform="translate(306.75,139)"/>
<path d="M0 0 C-1.92184456 17.07076213 -4.27615962 34.03894351 -7 51 C-6.3299292 51.04825928 -5.6598584 51.09651855 -4.96948242 51.14624023 C1.70521218 51.68196082 8.14044064 52.67669761 14.6875 54.0625 C15.59177734 54.24876953 16.49605469 54.43503906 17.42773438 54.62695312 C19.61966845 55.07925698 21.81031275 55.536964 24 56 C24 59 24 59 22.53125 60.80932617 C21.8609375 61.46392822 21.190625 62.11853027 20.5 62.79296875 C19.778125 63.50517578 19.05625 64.21738281 18.3125 64.95117188 C17.1678125 66.0581543 17.1678125 66.0581543 16 67.1875 C14.8553125 68.31188477 14.8553125 68.31188477 13.6875 69.45898438 C11.79819161 71.31286823 9.90224794 73.15941069 8 75 C9.27926297 77.80911274 10.60109956 79.8455049 12.79736328 82.00854492 C13.63800827 82.84412178 13.63800827 82.84412178 14.49563599 83.69657898 C15.39885086 84.57960442 15.39885086 84.57960442 16.3203125 85.48046875 C16.93897186 86.09392654 17.55763123 86.70738434 18.19503784 87.33943176 C20.16699558 89.2936052 22.14552483 91.240944 24.125 93.1875 C26.11071516 95.14564244 28.09497052 97.10520941 30.0763855 99.06770325 C31.30896079 100.28797111 32.54419809 101.50555677 33.78225708 102.72026062 C35.20691242 104.128125 36.60634343 105.56144297 38 107 C38 107.33 38 107.66 38 108 C18.2 108 -1.6 108 -22 108 C-22 89.52 -22 71.04 -22 52 C-27.28 52 -32.56 52 -38 52 C-38 70.48 -38 88.96 -38 108 C-59.12 108 -80.24 108 -102 108 C-99.66694342 88.16901909 -99.66694342 88.16901909 -97.4375 82 C-97.18137939 81.2663623 -96.92525879 80.53272461 -96.66137695 79.77685547 C-91.85500942 66.59842378 -84.90046216 54.81229428 -76 44 C-75.08347656 42.83791016 -75.08347656 42.83791016 -74.1484375 41.65234375 C-57.99642948 22.16683621 -33.81906033 12.71151471 -11 3.5 C-10.13294434 3.149375 -9.26588867 2.79875 -8.37255859 2.4375 C-7.56898926 2.1178125 -6.76541992 1.798125 -5.9375 1.46875 C-5.22464844 1.18451172 -4.51179688 0.90027344 -3.77734375 0.60742188 C-2 0 -2 0 0 0 Z " fill="#5BD5B2" transform="translate(158,380)"/>
<path d="M0 0 C7.27274436 2.29831315 14.30723978 5.05570813 21.35498047 7.96875 C23.22984638 8.74169137 25.10886783 9.50382035 26.98828125 10.265625 C40.17416128 15.66685495 51.90051131 22.04526441 63 31 C63.77988281 31.61359375 64.55976563 32.2271875 65.36328125 32.859375 C76.44663034 42.07253197 84.48760394 54.27644205 91 67 C91.54398438 68.05058594 92.08796875 69.10117187 92.6484375 70.18359375 C97.99504981 81.48747206 102 95.44433655 102 108 C80.88 108 59.76 108 38 108 C38 89.52 38 71.04 38 52 C32.72 52 27.44 52 22 52 C22 70.48 22 88.96 22 108 C2.2 108 -17.6 108 -38 108 C-34.14505171 103.50256033 -30.35400893 99.21257661 -26.1640625 95.06640625 C-25.63984711 94.5436058 -25.11563171 94.02080536 -24.57553101 93.48216248 C-22.9277213 91.83987655 -21.27644099 90.2011335 -19.625 88.5625 C-18.49586045 87.43838533 -17.36695222 86.31403826 -16.23828125 85.18945312 C-13.49484812 82.45694765 -10.74830015 79.72760991 -8 77 C-9.39347376 73.84795019 -11.02485079 71.73828227 -13.4765625 69.328125 C-14.48203125 68.33232422 -14.48203125 68.33232422 -15.5078125 67.31640625 C-16.55582031 66.29353516 -16.55582031 66.29353516 -17.625 65.25 C-18.33140625 64.55261719 -19.0378125 63.85523438 -19.765625 63.13671875 C-21.50598703 61.41987512 -23.25084981 59.70788168 -25 58 C-24.67 57.34 -24.34 56.68 -24 56 C-21.57910156 55.31396484 -21.57910156 55.31396484 -18.390625 54.7109375 C-17.24335938 54.49179687 -16.09609375 54.27265625 -14.9140625 54.046875 C-13.70492188 53.82515625 -12.49578125 53.6034375 -11.25 53.375 C-10.05632812 53.14554687 -8.86265625 52.91609375 -7.6328125 52.6796875 C-2.67550679 51.74811327 1.95027901 50.9417867 7 51 C6.91230347 50.40531418 6.82460693 49.81062836 6.73425293 49.19792175 C5.82334622 43.01798626 4.91543562 36.83761592 4.00927734 30.65698242 C3.67053088 28.34925182 3.33101613 26.04163385 2.99072266 23.73413086 C2.50221804 20.42070232 2.01646204 17.10688084 1.53125 13.79296875 C1.37813354 12.7585112 1.22501709 11.72405365 1.06726074 10.6582489 C0.92711548 9.6974794 0.78697021 8.7367099 0.64257812 7.74682617 C0.51822388 6.90077316 0.39386963 6.05472015 0.26574707 5.18302917 C0 3 0 3 0 0 Z " fill="#5BD5B2" transform="translate(354,380)"/>
<path d="M0 0 C3.38334551 1.12778184 3.97700939 1.96359887 6.125 4.6875 C13.38593288 13.19664356 23.11313069 17.9064582 34 20 C32.73420311 33.11429619 31.3291577 46.20589698 29.76782227 59.28833008 C29.43070943 62.11952975 29.09907191 64.95134063 28.76757812 67.78320312 C28.55240991 69.59639295 28.33692767 71.40954555 28.12109375 73.22265625 C28.02316025 74.06313004 27.92522675 74.90360382 27.82432556 75.76954651 C27.43719117 78.98043079 27.0257016 81.92289521 26 85 C9.5 85 -7 85 -24 85 C-26.25039944 72.62280306 -26.25039944 72.62280306 -26.77783203 68.22485352 C-26.89780548 67.23755753 -27.01777893 66.25026154 -27.14138794 65.23304749 C-27.26230804 64.20868088 -27.38322815 63.18431427 -27.5078125 62.12890625 C-27.63815887 61.04415512 -27.76850525 59.95940399 -27.90280151 58.84178162 C-28.17493555 56.57057676 -28.44543471 54.29917546 -28.71435547 52.02758789 C-29.12681885 48.54715226 -29.54546059 45.06749852 -29.96484375 41.58789062 C-30.22953081 39.37243931 -30.49386633 37.15694596 -30.7578125 34.94140625 C-30.88278107 33.90287003 -31.00774963 32.8643338 -31.13650513 31.79432678 C-31.30700882 30.34648048 -31.30700882 30.34648048 -31.48095703 28.86938477 C-31.58151398 28.02320084 -31.68207092 27.17701691 -31.78567505 26.30519104 C-32 24 -32 24 -32 20 C-31.17757812 19.78085937 -30.35515625 19.56171875 -29.5078125 19.3359375 C-17.32278716 15.87460236 -7.17574307 10.7636146 0 0 Z " fill="#FD816D" transform="translate(255,403)"/>
<path d="M0 0 C5.55343233 0.8366753 10.27154764 3.2885281 15.33203125 5.625 C22.88827166 8.45758426 27.84699475 8.30492521 35.25 5.1875 C35.94351563 4.91357422 36.63703125 4.63964844 37.3515625 4.35742188 C40.0599395 3.27562761 42.71070893 2.15104143 45.296875 0.80078125 C47 0 47 0 50 0 C50.3403125 1.918125 50.3403125 1.918125 50.6875 3.875 C51.90089007 9.40072598 54.33308638 14.05082376 57 19 C57.67119793 20.33105806 58.33945649 21.66362262 59 23 C52.94123604 30.74175394 47.11683376 35.31721122 38 39 C36.88625 39.45375 35.7725 39.9075 34.625 40.375 C21.78263859 42.58920024 11.31527697 40.65678604 0.625 33.125 C-3.06672805 30.15926031 -6.09166204 26.7235539 -9 23 C-7.95883498 20.89356892 -6.89597964 18.80696221 -5.78125 16.73828125 C-2.84308705 11.17547883 -1.09917161 6.19533092 0 0 Z " fill="#ECCDB1" transform="translate(231,327)"/>
<path d="M0 0 C0 5.28 0 10.56 0 16 C-1.37671875 16.17015625 -2.7534375 16.3403125 -4.171875 16.515625 C-29.29102749 19.75857404 -50.6344066 28.51678997 -67.56640625 47.83984375 C-72.22745619 53.89247521 -76.12364937 60.42669903 -80 67 C-83.61221644 65.85112887 -87.00775797 64.61667691 -90.375 62.875 C-91.06335938 62.52179688 -91.75171875 62.16859375 -92.4609375 61.8046875 C-92.96882812 61.53914063 -93.47671875 61.27359375 -94 61 C-88.8197813 41.31516894 -69.88947101 24.21643005 -52.93212891 14.10205078 C-36.63643058 4.80728426 -18.88291701 -0.65113507 0 0 Z " fill="#010101" transform="translate(256,40)"/>
<path d="M0 0 C1.15299299 2.30598598 1.34430712 4.09666625 1.6484375 6.65820312 C1.76525879 7.62681274 1.88208008 8.59542236 2.00244141 9.59338379 C2.12538574 10.64537964 2.24833008 11.69737549 2.375 12.78125 C2.50438965 13.86450562 2.6337793 14.94776123 2.76708984 16.06384277 C3.18155279 19.5421568 3.59071451 23.02107337 4 26.5 C4.27572007 28.81514249 4.55175793 31.13024716 4.828125 33.4453125 C5.09404034 35.68225717 5.35967409 37.91923534 5.625 40.15625 C5.74794434 41.192052 5.87088867 42.227854 5.99755859 43.29504395 C6.72978899 49.5243047 7.39929066 55.75666773 8 62 C-0.38782402 61.38549887 -8.42139307 59.75817692 -16.625 57.9375 C-17.92827294 57.65248001 -19.23165781 57.36797132 -20.53515625 57.08398438 C-23.69123718 56.39432225 -26.84609966 55.69955412 -30 55 C-29.44393138 48.691772 -28.80009961 42.39689402 -28.09570312 36.10351562 C-27.86660502 33.96397227 -27.65736157 31.82220281 -27.46875 29.67871094 C-25.88046793 11.86017146 -25.88046793 11.86017146 -21.28564453 7.31494141 C-18.17826067 5.74951717 -15.37208238 4.8204264 -12 4 C-10.11400632 3.23489284 -8.23673035 2.44738751 -6.375 1.625 C-2.29268293 0 -2.29268293 0 0 0 Z " fill="#36B998" transform="translate(199,363)"/>
<path d="M0 0 C8 3 16 6 24 9 C25.98 24.18 27.96 39.36 30 55 C24.658125 56.155 19.31625 57.31 13.8125 58.5 C12.13518799 58.86544922 10.45787598 59.23089844 8.72973633 59.60742188 C7.38892153 59.8949368 6.04802514 60.18207154 4.70703125 60.46875 C4.02008179 60.61989258 3.33313232 60.77103516 2.62536621 60.92675781 C-0.99383322 61.69515979 -4.30960325 62.06514197 -8 62 C-7.32108366 54.87271586 -6.51103358 47.76837093 -5.625 40.6640625 C-5.49561035 39.62228851 -5.3662207 38.58051453 -5.23291016 37.50717163 C-4.96125497 35.32387416 -4.68894831 33.14065767 -4.41601562 30.95751953 C-3.99861863 27.61393444 -3.58517347 24.26987512 -3.171875 20.92578125 C-2.90649075 18.79684497 -2.640874 16.66793767 -2.375 14.5390625 C-2.25205566 13.54113678 -2.12911133 12.54321106 -2.00244141 11.51504517 C-1.88562012 10.58662811 -1.76879883 9.65821106 -1.6484375 8.70166016 C-1.54708496 7.88798981 -1.44573242 7.07431946 -1.34130859 6.23599243 C-1.01678672 4.10997374 -0.55892417 2.0754366 0 0 Z " fill="#36BA99" transform="translate(313,363)"/>
<path d="M0 0 C5.28 0 10.56 0 16 0 C16.37125 1.381875 16.7425 2.76375 17.125 4.1875 C18.75004042 9.12482376 20.74489133 11.10290473 25 14 C28.70981281 15.85490641 32.95123393 15.4540091 37 15 C40.94223152 12.99304577 43.79657642 10.85599126 46 7 C46.66 4.69 47.32 2.38 48 0 C53.28 0 58.56 0 64 0 C63.69711773 9.08646817 60.61338644 18.02942662 53.875 24.4375 C45.19950225 30.84899724 35.68451248 33.4694638 25 32 C21.68171232 31.08619462 18.93429474 29.78512228 16 28 C15.30132812 27.5875 14.60265625 27.175 13.8828125 26.75 C6.74701398 22.01075268 1.89831516 14.35258672 0 6 C0 4.02 0 2.04 0 0 Z " fill="#030202" transform="translate(224,256)"/>
<path d="M0 0 C-3.19939486 37.19939486 -3.19939486 37.19939486 -5 39 C-11.70041334 38.85743801 -16.73189952 36.02496786 -22 32 C-26.30294202 27.47200871 -31 21.41156021 -31 15 C-30.20078125 14.79246094 -29.4015625 14.58492188 -28.578125 14.37109375 C-19.57395103 11.845275 -10.5211938 8.52916769 -3.78515625 1.78125 C-2 0 -2 0 0 0 Z " fill="#F56B4E" transform="translate(296,368)"/>
<path d="M0 0 C3.1857284 1.47257926 5.86645591 3.2944232 8.6875 5.375 C15.72365662 10.34473764 22.61599513 13.17076257 31 15 C29.84850658 22.42514722 25.96392743 28.85866896 20 33.4375 C15.01793357 36.78734657 11.11433594 39.18497151 5 39 C3.36249737 30.27756932 1.85063956 21.56642449 0.8125 12.75 C0.72887207 12.04818604 0.64524414 11.34637207 0.55908203 10.62329102 C0.15790876 7.06492724 -0.09021606 3.58088367 0 0 Z " fill="#F56B4F" transform="translate(216,368)"/>
<path d="M0 0 C7.15801225 5.82628904 13.52591766 12.4382985 20 19 C18.41568547 22.90851199 15.73364905 25.52367356 12.7734375 28.421875 C12.26575836 28.92672424 11.75807922 29.43157349 11.23501587 29.95172119 C9.61966158 31.55592096 7.99747791 33.15300856 6.375 34.75 C5.27558302 35.83938107 4.17661941 36.9292199 3.078125 38.01953125 C0.3906398 40.68501885 -2.30299021 43.34415143 -5 46 C-5.86361363 43.10672475 -6.04863583 40.89483066 -5.67041016 37.90576172 C-5.52498276 36.71465286 -5.52498276 36.71465286 -5.37661743 35.4994812 C-5.2652243 34.65144928 -5.15383118 33.80341736 -5.0390625 32.9296875 C-4.929039 32.05224884 -4.8190155 31.17481018 -4.70565796 30.27078247 C-4.4719846 28.4194972 -4.23472793 26.56866118 -3.99414062 24.71826172 C-3.62559658 21.87959509 -3.26892888 19.0396243 -2.9140625 16.19921875 C-2.6855934 14.4009529 -2.45644984 12.60277259 -2.2265625 10.8046875 C-2.11921783 9.95260712 -2.01187317 9.10052673 -1.90127563 8.22262573 C-1.11608196 2.23216392 -1.11608196 2.23216392 0 0 Z " fill="#36B998" transform="translate(304,436)"/>
<path d="M0 0 C3.02252174 3.02252174 2.83464695 6.7222768 3.32421875 10.8046875 C3.43474075 11.68021271 3.54526276 12.55573792 3.65913391 13.45779419 C3.89096447 15.31167507 4.11848407 17.16609933 4.34204102 19.02099609 C4.68545151 21.85807646 5.04579594 24.69263466 5.40820312 27.52734375 C5.63122941 29.32799883 5.85326731 31.12877665 6.07421875 32.9296875 C6.18247482 33.77771942 6.2907309 34.62575134 6.40226746 35.4994812 C6.49599136 36.29355377 6.58971527 37.08762634 6.6862793 37.90576172 C6.77129196 38.60144257 6.85630463 39.29712341 6.94389343 40.0138855 C7 42 7 42 6 46 C-2.25 37.75 -10.5 29.5 -19 21 C-17.19522505 17.3904501 -15.88074534 15.64371929 -13.0859375 12.890625 C-12.32539063 12.13652344 -11.56484375 11.38242187 -10.78125 10.60546875 C-9.9871875 9.82816406 -9.193125 9.05085938 -8.375 8.25 C-7.57320312 7.45722656 -6.77140625 6.66445313 -5.9453125 5.84765625 C-3.96797154 3.89385507 -1.98611091 1.94487897 0 0 Z " fill="#36B998" transform="translate(207,436)"/>
<path d="M0 0 C1.73030291 0.28484846 3.45920714 0.57819938 5.1875 0.875 C6.15042969 1.03742188 7.11335937 1.19984375 8.10546875 1.3671875 C11 2 11 2 16 4 C15.34 8.62 14.68 13.24 14 18 C8.39 18 2.78 18 -3 18 C-2.5332314 11.69862387 -1.99796233 5.993887 0 0 Z " fill="#050505" transform="translate(155,118)"/>
<path d="M0 0 C4.0743356 0.84881992 5.54405875 2.30225596 8 5.625 C8.625 8.625 8.625 8.625 8 11.625 C5.54405875 14.94774404 4.0743356 16.40118008 0 17.25 C-4.0743356 16.40118008 -5.54405875 14.94774404 -8 11.625 C-8.625 8.625 -8.625 8.625 -8 5.625 C-5.54405875 2.30225596 -4.0743356 0.84881992 0 0 Z " fill="#0B0908" transform="translate(304,183.375)"/>
<path d="M0 0 C4.0743356 0.84881992 5.54405875 2.30225596 8 5.625 C8.625 8.625 8.625 8.625 8 11.625 C5.54405875 14.94774404 4.0743356 16.40118008 0 17.25 C-4.0743356 16.40118008 -5.54405875 14.94774404 -8 11.625 C-8.625 8.625 -8.625 8.625 -8 5.625 C-5.54405875 2.30225596 -4.0743356 0.84881992 0 0 Z " fill="#0B0908" transform="translate(208,183.375)"/>
</svg>
