<?xml version="1.0" encoding="UTF-8"?>
<svg version="1.1" xmlns="http://www.w3.org/2000/svg" width="512" height="512">
<path d="M0 0 C0.72638672 0.20898926 1.45277344 0.41797852 2.20117188 0.63330078 C34.10822986 10.13283745 62.21182124 32.81435577 78.13867188 62.09326172 C89.68555288 84.45119308 93.48176838 106.32500184 93.43359375 131.2734375 C93.43816811 133.37513393 93.44347736 135.47682888 93.44947815 137.57852173 C93.45834278 141.9503595 93.45605902 146.3220139 93.44604492 150.69384766 C93.43450684 156.27174363 93.45487488 161.84901103 93.48396206 167.42682457 C93.50236795 171.75420075 93.5020238 176.08142703 93.49632454 180.40883255 C93.49617217 182.46515414 93.50214618 184.52148644 93.51461601 186.57777023 C93.59292971 201.59099736 92.88429907 213.59842731 82 225 C75.98299421 230.74402254 68.21389727 235.9760786 59.59008789 236.00927734 C56.86143162 236.04806744 54.61253941 236.19635271 52 237 C49.60975601 239.61728864 48.53907112 242.58283719 47.3125 245.875 C46.57286513 247.62718575 45.82808667 249.37720936 45.078125 251.125 C44.72556641 251.970625 44.37300781 252.81625 44.00976562 253.6875 C36.02163177 271.98140809 18.15539007 292.865837 0.75 302.3125 C-2.24249689 304.67976213 -2.24249689 304.67976213 -2.33984375 307.6875 C-1.99860021 314.68736746 -0.66639574 321.3633318 4.4453125 326.43359375 C11.05874993 331.66799602 18.69250794 334.50787948 26.4375 337.625 C27.99361299 338.26200665 29.54926454 338.90014151 31.10449219 339.53930664 C36.39636817 341.70929454 41.69774121 343.85553189 47 346 C49.0737672 346.83926471 51.14749646 347.67862317 53.22119141 348.51806641 C54.28455215 348.94851257 55.3479129 349.37895874 56.4434967 349.82244873 C60.80447152 351.5891126 65.16381533 353.35978545 69.52322388 355.13031006 C72.67770423 356.40821247 75.83556451 357.67745323 78.99389648 358.94580078 C100.94951383 367.80709153 119.80886403 377.44463089 137 394 C137.96679688 394.87205078 137.96679688 394.87205078 138.953125 395.76171875 C158.68619562 414.06552491 169.27128993 441.89902954 173 468 C173 475.92 173 483.84 173 492 C30.44 492 -112.12 492 -259 492 C-259 452.34253612 -249.53358365 420.73698717 -221.75 392.3125 C-215.42865576 386.0416816 -208.53404312 380.74651062 -201 376 C-200.16605713 375.47245117 -199.33211426 374.94490234 -198.47290039 374.40136719 C-190.16958464 369.34601172 -181.53914393 365.64668209 -172.5625 362 C-170.98986587 361.35339971 -169.41752492 360.70608596 -167.84545898 360.05810547 C-162.90259493 358.02484676 -157.95238521 356.00994059 -153 354 C-151.77289307 353.50191833 -151.77289307 353.50191833 -150.52099609 352.99377441 C-145.6590854 351.02124017 -140.79584259 349.05200703 -135.93212891 347.08392334 C-129.28599648 344.3944172 -122.64122164 341.70161194 -116 339 C-114.82566406 338.52240234 -113.65132812 338.04480469 -112.44140625 337.55273438 C-109.4762041 336.33969713 -106.51795964 335.11154698 -103.5625 333.875 C-102.75304932 333.54516113 -101.94359863 333.21532227 -101.10961914 332.87548828 C-94.28974319 329.98392656 -88.832023 326.36990289 -85.7890625 319.37109375 C-84.16086275 314.4784341 -82.92566473 310.14146166 -84 305 C-86.34407039 302.43819975 -88.80019575 300.86801625 -91.75390625 299.046875 C-101.44751667 292.93441789 -109.12080111 284.03864666 -116 275 C-116.99773437 273.72576172 -116.99773437 273.72576172 -118.015625 272.42578125 C-122.00041791 267.17809137 -125.44295928 261.72372669 -128.6875 256 C-129.07655518 255.31832764 -129.46561035 254.63665527 -129.86645508 253.93432617 C-132.105874 249.91224683 -133.71752147 246.00048296 -135.1875 241.625 C-136.17735209 238.96292171 -136.17735209 238.96292171 -138 237 C-141.51455896 235.9241146 -144.7667852 235.61937224 -148.4296875 235.359375 C-157.54717167 234.44164136 -164.97397143 228.61365277 -171 222 C-177.66791821 212.89051002 -179.30033812 204.9928881 -179.29052734 193.9309082 C-179.29724457 192.83725449 -179.30396179 191.74360077 -179.31088257 190.61680603 C-179.32983552 187.01141783 -179.33378569 183.40621613 -179.3359375 179.80078125 C-179.34236816 177.28362452 -179.34909673 174.76646853 -179.35610962 172.24931335 C-179.36807626 166.97454629 -179.37187706 161.6998262 -179.37060547 156.42504883 C-179.36940629 150.3555147 -179.39047083 144.28633744 -179.4220928 138.21689349 C-179.45155703 132.34947337 -179.45857717 126.48219261 -179.45738602 120.61470604 C-179.45973624 118.13216891 -179.46852689 115.64962876 -179.48405075 113.16713905 C-179.50379448 109.68315244 -179.49783867 106.20006769 -179.48583984 102.71606445 C-179.49707886 101.70422089 -179.50831787 100.69237732 -179.51989746 99.64987183 C-179.40221977 86.10485913 -174.01116394 74.08928518 -164.8125 64.25 C-159.32129565 58.99996341 -152.97299597 55.68188427 -146.01953125 52.73828125 C-142.23614177 50.56026273 -140.07015061 47.93759887 -137.375 44.5625 C-118.74081463 22.15024955 -96.34607124 6.77435138 -68 -1 C-66.82566406 -1.33902344 -65.65132812 -1.67804687 -64.44140625 -2.02734375 C-44.30437761 -6.81347213 -19.78769232 -5.78989652 0 0 Z " fill="#010101" transform="translate(299,12)"/>
<path d="M0 0 C0.64324219 0.4125 1.28648437 0.825 1.94921875 1.25 C3.88379279 2.48636116 5.82161429 3.71764792 7.76171875 4.9453125 C9.83492213 6.2607588 11.90081182 7.58784813 13.95703125 8.9296875 C28.63229745 18.31130825 44.31082535 25.10954042 61 30 C62.22460938 30.37898438 63.44921875 30.75796875 64.7109375 31.1484375 C76.37630726 34.34739457 88.30749032 35.06611895 100.33398438 35.8737793 C101.06365417 35.92732574 101.79332397 35.98087219 102.54510498 36.03604126 C104.55639814 36.18297042 106.56871578 36.31567467 108.58105469 36.44750977 C112.14474928 37.023391 114.13749805 37.83764358 117 40 C119.07411416 43.11117124 119.25568125 43.82968671 119.29052734 47.3659668 C119.30936478 48.69217041 119.30936478 48.69217041 119.32858276 50.04516602 C119.33100983 51.00350342 119.33343689 51.96184082 119.3359375 52.94921875 C119.34440704 53.94598633 119.35287659 54.94275391 119.36160278 55.96972656 C119.38144204 59.20915398 119.38143765 62.44802238 119.375 65.6875 C119.3737915 66.78478424 119.37258301 67.88206848 119.37133789 69.01260376 C119.24902174 109.63760259 109.348735 142.9083048 81 173 C80.40058594 173.66386719 79.80117188 174.32773437 79.18359375 175.01171875 C67.67890681 187.26184977 49.56992138 200.2811199 33 204 C25.96989611 203.88234136 20.857448 201.31298414 14.75 198 C13.82340576 197.5045166 12.89681152 197.0090332 11.94213867 196.49853516 C0.7345918 190.38425781 -8.71586164 182.74638588 -18 174 C-18.66386719 173.40058594 -19.32773438 172.80117188 -20.01171875 172.18359375 C-34.32834066 158.73816587 -43.72749744 140.99937781 -50.375 122.75 C-50.69686279 121.89535156 -51.01872559 121.04070312 -51.3503418 120.16015625 C-57.14538738 103.36203417 -57.51659282 85.33910166 -57.44604492 67.75537109 C-57.43736086 64.44699149 -57.46672733 61.1402491 -57.49804688 57.83203125 C-57.49965522 55.71093801 -57.49908841 53.58984174 -57.49609375 51.46875 C-57.50732773 50.48861938 -57.51856171 49.50848877 -57.53013611 48.49865723 C-57.48630678 44.23363733 -57.3978182 41.67978704 -55.2109375 37.94287109 C-53.09883222 36.08684925 -51.80168783 35.18758629 -49.12890625 34.4453125 C-48.39623535 34.22721924 -47.66356445 34.00912598 -46.90869141 33.78442383 C-46.13444824 33.56681396 -45.36020508 33.3492041 -44.5625 33.125 C-24.88202136 27.01460847 -12.48088493 15.82200677 0 0 Z " fill="#EFCFB3" transform="translate(225,115)"/>
<path d="M0 0 C3.84587464 2.79098052 7.42769097 5.87048974 11 9 C11.85722656 9.67417969 12.71445312 10.34835938 13.59765625 11.04296875 C17.21333545 13.98842449 20.04887103 17.4029412 23 21 C23.70382812 21.85464844 24.40765625 22.70929688 25.1328125 23.58984375 C34.79681101 35.86345859 42.16912148 49.80598502 46 65 C46.26111572 65.93561768 46.52223145 66.87123535 46.79125977 67.83520508 C49.96393298 80.87592808 49.32888296 94.10037381 49.1875 107.4375 C49.17242357 109.92251792 49.15874041 112.4075447 49.14648438 114.89257812 C49.11371925 120.92858156 49.06375539 126.96424845 49 133 C47.980271 132.48143433 47.980271 132.48143433 46.93994141 131.95239258 C46.04452637 131.50017334 45.14911133 131.0479541 44.2265625 130.58203125 C43.34049316 130.1331958 42.45442383 129.68436035 41.54150391 129.22192383 C38.7581299 127.88371183 35.96601626 126.85858365 33 126 C32.96132813 124.62328125 32.96132813 124.62328125 32.921875 123.21875 C32.57485641 115.71052963 31.92652619 110.42522467 28 104 C27.70996094 103.31164062 27.41992188 102.62328125 27.12109375 101.9140625 C25.71486213 99.51317925 24.49829939 99.15916382 22 98 C21.37295166 97.65767334 20.74590332 97.31534668 20.09985352 96.96264648 C13.46720292 93.60610641 7.27423908 93.33257956 -0.0625 93.0625 C-38.02934261 90.95503222 -71.9343106 77.42376032 -100.85546875 52.65234375 C-102.81283708 50.79655395 -102.81283708 50.79655395 -105 51 C-106.72330013 53.02723313 -108.33715981 55.06617679 -109.9375 57.1875 C-110.93738682 58.47766059 -111.93872524 59.76669729 -112.94140625 61.0546875 C-114.42387325 62.96612965 -115.90587658 64.87784901 -117.38232422 66.79394531 C-127.67679232 80.03454005 -139.12582087 88.06648851 -155.53515625 92.71875 C-162.39305426 94.69495389 -167.53492429 98.01028208 -171.3515625 104.1875 C-174.5397093 111.16013761 -174.78180459 118.42861939 -175 126 C-176.22976562 126.50660156 -176.22976562 126.50660156 -177.484375 127.0234375 C-178.56203125 127.46945313 -179.6396875 127.91546875 -180.75 128.375 C-181.81734375 128.81585938 -182.8846875 129.25671875 -183.984375 129.7109375 C-186.37752211 130.73391489 -188.68175391 131.82338076 -191 133 C-191.11646679 124.08049245 -191.20500269 115.16125146 -191.25906086 106.24114609 C-191.28502199 102.09798849 -191.32016852 97.95535567 -191.37719727 93.8125 C-191.4320049 89.80537092 -191.4615216 85.79874272 -191.47438622 81.7912674 C-191.48353964 80.27158994 -191.50141143 78.75193617 -191.52865028 77.23247528 C-191.72998 65.52321629 -190.22846553 54.41336368 -181.7890625 45.51953125 C-176.96361512 41.42106175 -171.59315259 38.52548917 -165.625 36.5 C-158.95775775 33.69645997 -154.81736652 27.21949183 -150.40185547 21.73925781 C-132.87723184 -0.00323935 -109.13469557 -12.43610343 -82 -18 C-81.20368164 -18.176521 -80.40736328 -18.35304199 -79.58691406 -18.53491211 C-52.35716348 -23.43040804 -22.65174818 -15.14925834 0 0 Z " fill="#B07845" transform="translate(327,43)"/>
<path d="M0 0 C-0.50742191 7.05089257 -1.71011403 13.66774956 -3.5 20.5 C-3.72558594 21.39203125 -3.95117188 22.2840625 -4.18359375 23.203125 C-5.84423525 29.6884705 -5.84423525 29.6884705 -7 32 C-6.42870361 32.26643311 -5.85740723 32.53286621 -5.26879883 32.80737305 C-2.89261713 34.05644736 -0.85128488 35.47872181 1.30078125 37.08203125 C2.11353516 37.68466797 2.92628906 38.28730469 3.76367188 38.90820312 C4.60478516 39.53662109 5.44589844 40.16503906 6.3125 40.8125 C7.97490878 42.04865012 9.63766363 43.28433497 11.30078125 44.51953125 C12.09436035 45.10943848 12.88793945 45.6993457 13.70556641 46.30712891 C16.77857128 48.57444278 19.88396515 50.792283 23 53 C21.72199484 56.44955334 20.23881563 59.38090029 18.1796875 62.42578125 C17.37724609 63.61977539 17.37724609 63.61977539 16.55859375 64.83789062 C16.00300781 65.65451172 15.44742188 66.47113281 14.875 67.3125 C14.31167969 68.14845703 13.74835938 68.98441406 13.16796875 69.84570312 C11.78279211 71.89999052 10.39337781 73.95127038 9 76 C10.64886545 80.28744059 13.88590554 83.12065048 17.1015625 86.26171875 C17.69802582 86.8529805 18.29448914 87.44424225 18.9090271 88.05342102 C20.80965509 89.93626941 22.71685175 91.81227572 24.625 93.6875 C26.53938617 95.57431172 28.45231059 97.4625486 30.36239624 99.35371399 C31.55045639 100.52946832 32.74117822 101.70254002 33.9347229 102.87272644 C35.30856076 104.22976532 36.65716339 105.61227711 38 107 C38 107.33 38 107.66 38 108 C18.2 108 -1.6 108 -22 108 C-22 92.16 -22 76.32 -22 60 C-27.28 60 -32.56 60 -38 60 C-38 75.84 -38 91.68 -38 108 C-59.12 108 -80.24 108 -102 108 C-99.52430725 83.24307247 -91.2144429 62.11220478 -75 43 C-74.48179688 42.33613281 -73.96359375 41.67226563 -73.4296875 40.98828125 C-59.17122287 23.32641426 -37.36178896 14.46771073 -17 6 C-15.77845215 5.49146484 -15.77845215 5.49146484 -14.53222656 4.97265625 C-2.51841286 0 -2.51841286 0 0 0 Z " fill="#FAD66F" transform="translate(158,380)"/>
<path d="M0 0 C7.27274436 2.29831315 14.30723978 5.05570813 21.35498047 7.96875 C23.22984638 8.74169137 25.10886783 9.50382035 26.98828125 10.265625 C40.17416128 15.66685495 51.90051131 22.04526441 63 31 C63.77988281 31.61359375 64.55976563 32.2271875 65.36328125 32.859375 C82.32785308 46.96136366 94.18987866 68.5852348 99.375 89.75 C99.62685059 90.75897339 99.62685059 90.75897339 99.88378906 91.78833008 C101.16602754 97.48432143 101 101.85563 101 108 C80.21 108 59.42 108 38 108 C38 92.16 38 76.32 38 60 C32.72 60 27.44 60 22 60 C22 75.84 22 91.68 22 108 C2.2 108 -17.6 108 -38 108 C-34.1819498 103.5456081 -30.51309612 99.39223603 -26.3828125 95.28515625 C-25.88079315 94.78455185 -25.3787738 94.28394745 -24.86154175 93.76817322 C-23.28506329 92.19721402 -21.70511427 90.62980123 -20.125 89.0625 C-19.04403726 87.98656273 -17.96330617 86.91039269 -16.8828125 85.83398438 C-14.25787359 83.21996708 -11.62981372 80.60911404 -9 78 C-10.27197862 74.55992741 -11.74263149 71.66311953 -13.8203125 68.64453125 C-14.62275391 67.46407227 -14.62275391 67.46407227 -15.44140625 66.25976562 C-15.99699219 65.45216797 -16.55257813 64.64457031 -17.125 63.8125 C-18.23597017 62.19689006 -19.34295861 60.57853244 -20.4453125 58.95703125 C-20.93531738 58.24522705 -21.42532227 57.53342285 -21.93017578 56.80004883 C-23 55 -23 55 -23 53 C-21.39868164 51.59887695 -21.39868164 51.59887695 -19.16015625 49.98828125 C-18.34353516 49.39466797 -17.52691406 48.80105469 -16.68554688 48.18945312 C-15.81994141 47.57005859 -14.95433594 46.95066406 -14.0625 46.3125 C-12.38582552 45.10149617 -10.71004153 43.88925845 -9.03515625 42.67578125 C-7.78822998 41.77593506 -7.78822998 41.77593506 -6.51611328 40.85791016 C-3.21036589 38.41693037 -0.00442636 35.85893767 3.18969727 33.27416992 C5 32 5 32 7 32 C6.66226563 30.7934375 6.32453125 29.586875 5.9765625 28.34375 C5.52598548 26.72918235 5.07546782 25.11459813 4.625 23.5 C4.40328125 22.70851563 4.1815625 21.91703125 3.953125 21.1015625 C-0.29323176 5.86463529 -0.29323176 5.86463529 0 0 Z " fill="#FAD66F" transform="translate(354,380)"/>
<path d="M0 0 C5.55343233 0.8366753 10.27154764 3.2885281 15.33203125 5.625 C22.88827166 8.45758426 27.84699475 8.30492521 35.25 5.1875 C35.94351563 4.91357422 36.63703125 4.63964844 37.3515625 4.35742188 C40.0599395 3.27562761 42.71070893 2.15104143 45.296875 0.80078125 C47 0 47 0 50 0 C50.3403125 1.918125 50.3403125 1.918125 50.6875 3.875 C51.72063032 8.64097345 53.63863542 12.57901825 55.9765625 16.8359375 C57 19 57 19 57 22 C55.82312012 23.53764343 55.82312012 23.53764343 54.15429688 25.1862793 C53.53365356 25.80669601 52.91301025 26.42711273 52.27355957 27.06632996 C51.59547241 27.72893326 50.91738525 28.39153656 50.21875 29.07421875 C49.53067261 29.7580513 48.84259521 30.44188385 48.13366699 31.1464386 C45.92936821 33.33391366 43.71487856 35.51074286 41.5 37.6875 C40.00582867 39.16662934 38.51233012 40.64643865 37.01953125 42.12695312 C33.35412108 45.75924493 29.67953619 49.38202091 26 53 C23.09456128 51.68623083 21.03338941 50.27943508 18.79199219 48.01904297 C18.19167175 47.41857147 17.59135132 46.81809998 16.97283936 46.19943237 C16.33727112 45.55354156 15.70170288 44.90765076 15.046875 44.2421875 C14.38665344 43.57913605 13.72643188 42.91608459 13.04620361 42.23294067 C10.94272176 40.11828168 8.84630858 37.99676788 6.75 35.875 C5.32337739 34.43834443 3.89629928 33.00214102 2.46875 31.56640625 C-1.02613661 28.04949196 -4.51470062 24.52641453 -8 21 C-7.58282715 20.1946582 -7.1656543 19.38931641 -6.73583984 18.55957031 C-6.19137207 17.49319336 -5.6469043 16.42681641 -5.0859375 15.328125 C-4.54501465 14.2752832 -4.0040918 13.22244141 -3.44677734 12.13769531 C-1.58369723 8.09714424 -0.72923487 4.37540922 0 0 Z " fill="#EECEB2" transform="translate(231,327)"/>
<path d="M0 0 C2.07141874 1.27098549 3.6104705 2.58886103 5.31976318 4.31216431 C5.94010437 4.93265656 6.56044556 5.5531488 7.19958496 6.19244385 C7.85702698 6.86020844 8.51446899 7.52797302 9.1918335 8.2159729 C9.8742511 8.9012204 10.5566687 9.5864679 11.25976562 10.29248047 C13.43457448 12.47846886 15.60231922 14.67131469 17.7699585 16.8644104 C19.24475839 18.34924295 20.72001355 19.83362346 22.19573975 21.3175354 C25.80911298 24.9529395 29.41616703 28.59450864 33.0199585 32.2394104 C31.12678009 36.36331439 28.34170482 39.17221644 25.137146 42.3175354 C24.56287872 42.88897278 23.98861145 43.46041016 23.39694214 44.04916382 C21.5676004 45.86733985 19.73141657 47.67842532 17.8949585 49.4894104 C16.65101076 50.72332369 15.40751579 51.95769362 14.16448975 53.1925354 C11.12153483 56.21347783 8.07242595 59.22808132 5.0199585 62.2394104 C3.0199585 61.2394104 3.0199585 61.2394104 2.27487183 59.59869385 C2.04266937 58.88796722 1.81046692 58.1772406 1.57122803 57.44497681 C1.30399933 56.63968536 1.03677063 55.83439392 0.76144409 55.00469971 C0.47808197 54.12566986 0.19471985 53.24664001 -0.097229 52.3409729 C-0.39565704 51.43624237 -0.69408508 50.53151184 -1.0015564 49.59936523 C-1.95978589 46.68997983 -2.90776244 43.77737762 -3.8550415 40.8644104 C-4.79526215 37.99357764 -5.73760683 35.12345513 -6.68127441 32.25375366 C-7.28831539 30.40617611 -7.893281 28.55791528 -8.49609375 26.70895386 C-10.31293322 21.16025548 -12.2432093 15.68304083 -14.45318604 10.27603149 C-15.08235934 7.8438889 -14.93796425 6.55255676 -13.9800415 4.2394104 C-11.39801025 2.6847229 -11.39801025 2.6847229 -8.1675415 1.3644104 C-6.58006104 0.68765259 -6.58006104 0.68765259 -4.96051025 -0.0027771 C-1.9800415 -0.7605896 -1.9800415 -0.7605896 0 0 Z " fill="#A9B0BB" transform="translate(210.98004150390625,358.7605895996094)"/>
<path d="M0 0 C1.42671564 0.46196792 2.85227329 0.92751297 4.27734375 1.39453125 C5.46831665 1.78282104 5.46831665 1.78282104 6.68334961 2.17895508 C9.5919473 3.20979226 12.28554319 4.53836941 15 6 C13.5980795 12.93171801 11.6157138 19.48125804 9.3046875 26.16015625 C8.95238068 27.19063583 8.60007385 28.22111542 8.23709106 29.28282166 C7.12089659 32.54427832 5.99806242 35.80340272 4.875 39.0625 C4.11283986 41.28565602 3.35111667 43.50896189 2.58984375 45.73242188 C0.73161222 51.15669114 -1.13206265 56.57906595 -3 62 C-6 62 -6 62 -8.8190918 59.52148438 C-9.9535252 58.38657524 -11.07971791 57.24339159 -12.19921875 56.09375 C-12.79426712 55.49445679 -13.38931549 54.89516357 -14.00239563 54.27770996 C-15.90457052 52.35871908 -17.79606205 50.42956888 -19.6875 48.5 C-20.97392 47.19853699 -22.2610211 45.89774682 -23.54882812 44.59765625 C-26.70718002 41.40619631 -29.85598797 38.20558502 -33 35 C-31.67005617 32.04734888 -30.22220684 29.97649784 -27.92724609 27.70019531 C-27.30675385 27.07985413 -26.6862616 26.45951294 -26.04696655 25.82037354 C-25.37920197 25.16293152 -24.71143738 24.5054895 -24.0234375 23.828125 C-23.33819 23.1457074 -22.6529425 22.46328979 -21.94692993 21.76019287 C-19.76094155 19.58538402 -17.56809571 17.41763928 -15.375 15.25 C-13.89016745 13.7752001 -12.40578694 12.29994494 -10.921875 10.82421875 C-7.2864709 7.21084552 -3.64490176 3.60379147 0 0 Z " fill="#A9B1BB" transform="translate(301,358)"/>
<path d="M0 0 C23.25710668 -1.26856946 48.56905787 8.09975864 66.0703125 23.26953125 C66.70710938 23.84058594 67.34390625 24.41164063 68 25 C69.06040688 25.83599519 70.12266646 26.66965053 71.1875 27.5 C74.80855159 30.71871252 77.92861488 34.25930578 81 38 C81.58394531 38.67933594 82.16789062 39.35867187 82.76953125 40.05859375 C83.17558594 40.69925781 83.58164062 41.33992188 84 42 C82.73459948 45.79620155 81.21781569 46.48678188 77.9375 48.6875 C77.01839844 49.31011719 76.09929687 49.93273437 75.15234375 50.57421875 C74.44207031 51.04472656 73.73179687 51.51523438 73 52 C68.98943298 50.45319932 66.76412222 47.62534511 64.0625 44.4375 C47.42615525 25.62578557 24.19410816 18.39761432 0 16 C0 10.72 0 5.44 0 0 Z " fill="#020101" transform="translate(256,40)"/>
<path d="M0 0 C5.28 0 10.56 0 16 0 C16.37125 1.381875 16.7425 2.76375 17.125 4.1875 C18.75004042 9.12482376 20.74489133 11.10290473 25 14 C28.70981281 15.85490641 32.95123393 15.4540091 37 15 C40.94223152 12.99304577 43.79657642 10.85599126 46 7 C46.66 4.69 47.32 2.38 48 0 C53.28 0 58.56 0 64 0 C63.69711773 9.08646817 60.61338644 18.02942662 53.875 24.4375 C45.19950225 30.84899724 35.68451248 33.4694638 25 32 C21.68171232 31.08619462 18.93429474 29.78512228 16 28 C15.30132812 27.5875 14.60265625 27.175 13.8828125 26.75 C6.74701398 22.01075268 1.89831516 14.35258672 0 6 C0 4.02 0 2.04 0 0 Z " fill="#030202" transform="translate(224,256)"/>
<path d="M0 0 C2.0625 0.4375 2.0625 0.4375 4 1 C5.46843868 6.22369489 6.92501718 11.450395 8.36279297 16.68261719 C8.91700364 18.69816036 9.47568686 20.71247269 10.03515625 22.7265625 C10.45087891 24.28503906 10.45087891 24.28503906 10.875 25.875 C11.24238281 27.23238281 11.24238281 27.23238281 11.6171875 28.6171875 C12.04351411 31.27085311 11.95784096 32.50011135 11 35 C9.1015625 36.82763672 9.1015625 36.82763672 6.625 38.6796875 C5.26955078 39.70255859 5.26955078 39.70255859 3.88671875 40.74609375 C2.93410156 41.44863281 1.98148437 42.15117187 1 42.875 C0.07832031 43.56980469 -0.84335937 44.26460938 -1.79296875 44.98046875 C-7.40563209 49.18402902 -13.12809799 53.16872726 -19 57 C-17.59854333 50.08632453 -15.63265954 43.54166613 -13.33984375 36.875 C-12.9899086 35.84689209 -12.63997345 34.81878418 -12.2794342 33.75952148 C-11.5446112 31.60403795 -10.80746975 29.44934353 -10.06811523 27.29541016 C-8.93204322 23.98409509 -7.80436404 20.67000686 -6.67773438 17.35546875 C-5.96142796 15.25764497 -5.24464816 13.15998275 -4.52734375 11.0625 C-4.01952614 9.57049072 -4.01952614 9.57049072 -3.50144958 8.04833984 C-3.18764847 7.13648926 -2.87384735 6.22463867 -2.55053711 5.28515625 C-2.13655922 4.07678101 -2.13655922 4.07678101 -1.71421814 2.84399414 C-1 1 -1 1 0 0 Z " fill="#F5E1A1" transform="translate(331,371)"/>
<path d="M0 0 C1.86735535 0.19180298 1.86735535 0.19180298 4 1 C5.1710968 3.1121521 5.1710968 3.1121521 6.12231445 5.93115234 C6.48561356 6.98249359 6.84891266 8.03383484 7.22322083 9.11703491 C7.78755074 10.83414169 7.78755074 10.83414169 8.36328125 12.5859375 C8.75952194 13.75379791 9.15576263 14.92165833 9.56401062 16.12490845 C10.61386992 19.23358172 11.64832763 22.34687587 12.67706299 25.46258545 C13.7292647 28.62929722 14.80955868 31.78634095 15.88476562 34.9453125 C16.69171132 37.34581451 17.4971025 39.74683976 18.30078125 42.1484375 C18.68712234 43.28912689 19.07346344 44.42981628 19.47151184 45.60507202 C19.81905014 46.66271759 20.16658844 47.72036316 20.5246582 48.81005859 C20.83458206 49.74191986 21.14450592 50.67378113 21.46382141 51.63388062 C22 54 22 54 21 57 C20.51756836 56.62302979 20.03513672 56.24605957 19.53808594 55.85766602 C10.09176778 48.48095846 0.62925352 41.13697614 -9 34 C-7.88473576 26.74245958 -6.25192735 19.62540002 -4.5 12.5 C-4.28641846 11.61538086 -4.07283691 10.73076172 -3.8527832 9.81933594 C-3.64355225 8.98176758 -3.43432129 8.14419922 -3.21875 7.28125 C-3.03248047 6.52908203 -2.84621094 5.77691406 -2.65429688 5.00195312 C-2 3 -2 3 0 0 Z " fill="#F5E1A0" transform="translate(178,371)"/>
<path d="M0 0 C3.46375871 4.22429762 6.66693653 8.59980852 9.8125 13.0625 C10.5849707 14.12307617 10.5849707 14.12307617 11.37304688 15.20507812 C11.85451172 15.89150391 12.33597656 16.57792969 12.83203125 17.28515625 C13.27264893 17.90269775 13.7132666 18.52023926 14.16723633 19.15649414 C15.26131066 21.57846873 14.87401581 22.52023799 14 25 C12.7028656 26.65789795 12.7028656 26.65789795 11.04077148 28.29980469 C10.4202037 28.92014587 9.79963593 29.54048706 9.16026306 30.17962646 C8.48733719 30.83706848 7.81441132 31.4945105 7.12109375 32.171875 C6.4344313 32.8542926 5.74776886 33.53671021 5.04029846 34.23980713 C2.84630585 36.41701196 0.64211084 38.58355281 -1.5625 40.75 C-3.05211634 42.22456971 -4.5410572 43.69982213 -6.02929688 45.17578125 C-9.67840808 48.79182176 -13.33670379 52.39833288 -17 56 C-17.66 55.67 -18.32 55.34 -19 55 C-16.6720537 48.12362576 -14.34256212 41.24777711 -12.01108646 34.37259865 C-10.92858395 31.1802977 -9.84661818 27.98781693 -8.76586914 24.79492188 C-7.52364457 21.12584415 -6.27958566 17.45739291 -5.03515625 13.7890625 C-4.64658951 12.64007477 -4.25802277 11.49108704 -3.85768127 10.30728149 C-3.49738327 9.2463327 -3.13708527 8.18538391 -2.76586914 7.09228516 C-2.28954796 5.68663803 -2.28954796 5.68663803 -1.80360413 4.25259399 C-1 2 -1 2 0 0 Z " fill="#F8E4A3" transform="translate(310,432)"/>
<path d="M0 0 C2.32955071 2.32955071 2.83294487 3.98241362 3.87939453 7.09228516 C4.239617 8.15323395 4.59983948 9.21418274 4.97097778 10.30728149 C5.35438324 11.45626923 5.7377887 12.60525696 6.1328125 13.7890625 C6.52951141 14.96262299 6.92621033 16.13618347 7.33493042 17.3453064 C8.38801875 20.46416872 9.43595591 23.58469985 10.48144531 26.70611572 C11.54974552 29.89146191 12.62476187 33.07453894 13.69921875 36.2578125 C15.80568828 42.50313123 17.90538446 48.75069627 20 55 C16.46813471 55 16.20864791 54.59146832 13.79785156 52.21777344 C13.17420715 51.61004089 12.55056274 51.00230835 11.90802002 50.37615967 C11.24227966 49.71062073 10.57653931 49.04508179 9.890625 48.359375 C9.20442078 47.6807843 8.51821655 47.0021936 7.81121826 46.30303955 C6.36164663 44.86428346 4.91604684 43.42151638 3.47412109 41.97509766 C1.25878304 39.75878689 -0.97698734 37.56463617 -3.21484375 35.37109375 C-4.61848672 33.97265702 -6.02087408 32.57295862 -7.421875 31.171875 C-8.09571228 30.51443298 -8.76954956 29.85699097 -9.46380615 29.17962646 C-10.07484192 28.55928528 -10.68587769 27.93894409 -11.31542969 27.29980469 C-11.85931335 26.75797546 -12.40319702 26.21614624 -12.96356201 25.65789795 C-14 24 -14 24 -13.74946594 21.93688965 C-12.79595599 19.47267687 -11.51476229 17.43983415 -10.05859375 15.234375 C-9.18364258 13.90019531 -9.18364258 13.90019531 -8.29101562 12.5390625 C-7.67935547 11.61867188 -7.06769531 10.69828125 -6.4375 9.75 C-5.82197266 8.81414062 -5.20644531 7.87828125 -4.57226562 6.9140625 C-3.05318579 4.60600322 -1.52895875 2.30152199 0 0 Z " fill="#F9E4A3" transform="translate(201,432)"/>
<path d="M0 0 C1.67542976 0.28604898 3.34385343 0.61781233 5 1 C6.43094272 5.90935134 7.85490397 10.82065354 9.27246094 15.73388672 C9.75557632 17.40468777 10.24058783 19.07494177 10.72753906 20.74462891 C11.42753489 23.14604315 12.12066637 25.54934841 12.8125 27.953125 C13.14060669 29.0705307 13.14060669 29.0705307 13.4753418 30.21051025 C14.45760766 33.6469585 15 36.39338329 15 40 C6.42 40 -2.16 40 -11 40 C-10.27298936 34.91092554 -9.36702486 30.25082667 -7.96875 25.3515625 C-7.67478333 24.3045668 -7.67478333 24.3045668 -7.37487793 23.23641968 C-6.96351267 21.77532774 -6.54995108 20.31485251 -6.13427734 18.85498047 C-5.49630049 16.61199335 -4.86682733 14.36673972 -4.23828125 12.12109375 C-3.83643618 10.69777578 -3.43410987 9.27459357 -3.03125 7.8515625 C-2.84268433 7.17872223 -2.65411865 6.50588196 -2.45983887 5.81265259 C-1.11537595 1.11537595 -1.11537595 1.11537595 0 0 Z " fill="#F77E6A" transform="translate(254,448)"/>
<path d="M0 0 C0.0501123 0.79470703 0.10022461 1.58941406 0.15185547 2.40820312 C1.48477458 23.76108103 1.48477458 23.76108103 4 45 C-3.55261509 43.9300462 -8.0229683 40.62922258 -12.7421875 34.7734375 C-16.70926545 29.180104 -16.73461083 22.61149744 -16 16 C-14.14112895 9.2468862 -9.4751191 5.08856297 -4 1 C-2 0 -2 0 0 0 Z " fill="#EBCCB0" transform="translate(152,186)"/>
<path d="M0 0 C4.65138508 1.2425843 7.12726322 2.65496381 10.25 6.3125 C10.91515625 7.07175781 11.5803125 7.83101562 12.265625 8.61328125 C16.47977605 14.41248461 16.74578665 20.03932458 16 27 C14.19058804 34.23764783 10.0073055 38.7643803 4 43 C0.8668907 44.866403 -0.12895194 45 -4 45 C-3.68905914 42.45813394 -3.37629464 39.91651402 -3.0625 37.375 C-2.97548828 36.66214844 -2.88847656 35.94929688 -2.79882812 35.21484375 C-2.42474229 32.19444697 -2.03999701 29.20939611 -1.46875 26.21875 C-0.73919371 21.20913015 -0.62737333 16.17998832 -0.4375 11.125 C-0.39431641 10.05507812 -0.35113281 8.98515625 -0.30664062 7.8828125 C-0.20107183 5.25532246 -0.09896209 2.62774578 0 0 Z " fill="#ECCCB1" transform="translate(360,186)"/>
<path d="M0 0 C4.00374431 1.83692389 6.71957934 4.49117916 9.75 7.625 C10.25660156 8.140625 10.76320313 8.65625 11.28515625 9.1875 C12.52803902 10.45383339 13.76465276 11.7263144 15 13 C12.80156034 19.162293 9.00961535 25.92035667 3.01171875 29.03125 C0.44916936 29.40099661 -0.67454771 29.1844188 -3 28 C-7.2131012 23.99355408 -12.3530857 19.04952287 -13 13 C-11.92016602 11.35253906 -11.92016602 11.35253906 -10.25390625 9.765625 C-9.36928711 8.90517578 -9.36928711 8.90517578 -8.46679688 8.02734375 C-7.83837891 7.44082031 -7.20996094 6.85429687 -6.5625 6.25 C-5.93794922 5.64800781 -5.31339844 5.04601562 -4.66992188 4.42578125 C-3.12421404 2.9390699 -1.5634768 1.4680135 0 0 Z " fill="#FB806C" transform="translate(255,404)"/>
<path d="M0 0 C4.29378813 1.92287034 6.77153701 4.62478869 10 8 C8.12826776 15.45649428 5.76914414 22.63193422 3.0859375 29.8359375 C2.14804069 32.56865843 1.47917093 35.15691912 1 38 C0.34 38 -0.32 38 -1 38 C-2.20894262 34.29831362 -3.38826247 30.58782724 -4.5625 26.875 C-4.90474609 25.82828125 -5.24699219 24.7815625 -5.59960938 23.703125 C-5.91865234 22.68476563 -6.23769531 21.66640625 -6.56640625 20.6171875 C-7.01415405 19.21895752 -7.01415405 19.21895752 -7.47094727 17.79248047 C-8.29740936 13.43019464 -7.75286802 10.18075704 -5.37109375 6.4453125 C-4.73300781 5.67960937 -4.09492188 4.91390625 -3.4375 4.125 C-2.79683594 3.34382813 -2.15617187 2.56265625 -1.49609375 1.7578125 C-1.00238281 1.17773438 -0.50867188 0.59765625 0 0 Z " fill="#7E8A96" transform="translate(281,430)"/>
<path d="M0 0 C3.68504774 1.22834925 4.49854469 2.57546777 6.75 5.6875 C7.38421875 6.53699219 8.0184375 7.38648438 8.671875 8.26171875 C11.55900512 14.21430173 7.7072836 21.81420977 5.9375 27.875 C5.65583984 28.84953125 5.37417969 29.8240625 5.08398438 30.828125 C4.39232159 33.21963701 3.69757969 35.61020851 3 38 C-0.8564735 34.1435265 -1.97717491 28.19408703 -3.75 23.125 C-4.18699219 21.92746094 -4.62398437 20.72992188 -5.07421875 19.49609375 C-5.47769531 18.34496094 -5.88117188 17.19382812 -6.296875 16.0078125 C-6.67166992 14.95223145 -7.04646484 13.89665039 -7.43261719 12.80908203 C-8 10 -8 10 -7.20068359 7.73095703 C-5.14406154 4.76604235 -2.60445199 2.49121494 0 0 Z " fill="#7F8B96" transform="translate(229,430)"/>
<path d="M0 0 C0.84442881 1.89091736 1.67511587 3.78797515 2.5 5.6875 C2.9640625 6.74324219 3.428125 7.79898438 3.90625 8.88671875 C4.94950801 11.85627816 5.23065301 13.89195063 5 17 C-0.35264798 19.15984041 -4.07756617 20.15393802 -10 21 C-11.65 16.05 -13.3 11.1 -15 6 C-2.25 0 -2.25 0 0 0 Z " fill="#050302" transform="translate(351,101)"/>
<path d="M0 0 C4.0743356 0.84881992 5.54405875 2.30225596 8 5.625 C8.625 8.625 8.625 8.625 8 11.625 C5.54405875 14.94774404 4.0743356 16.40118008 0 17.25 C-4.0743356 16.40118008 -5.54405875 14.94774404 -8 11.625 C-8.625 8.625 -8.625 8.625 -8 5.625 C-5.54405875 2.30225596 -4.0743356 0.84881992 0 0 Z " fill="#0B0908" transform="translate(304,175.375)"/>
<path d="M0 0 C4.0743356 0.84881992 5.54405875 2.30225596 8 5.625 C8.625 8.625 8.625 8.625 8 11.625 C5.54405875 14.94774404 4.0743356 16.40118008 0 17.25 C-4.0743356 16.40118008 -5.54405875 14.94774404 -8 11.625 C-8.625 8.625 -8.625 8.625 -8 5.625 C-5.54405875 2.30225596 -4.0743356 0.84881992 0 0 Z " fill="#0B0908" transform="translate(208,175.375)"/>
</svg>
